<svg xmlns="http://www.w3.org/2000/svg"  viewBox="0 0 24 24" width="48px" height="48px"><path d="M20,21H4c-1.1,0-2-0.9-2-2V8c0-1.1,0.9-2,2-2h3V5c0-1.1,0.9-2,2-2h6c1.1,0,2,0.9,2,2v1h3c1.1,0,2,0.9,2,2v11 C22,20.1,21.1,21,20,21z M4,8v11h16V8h-3c-1.1,0-2-0.9-2-2V5H9v1c0,1.1-0.9,2-2,2H4z"/><path d="M12 17c-2.2 0-4-1.8-4-4 0-2.2 1.8-4 4-4 2.2 0 4 1.8 4 4C16 15.2 14.2 17 12 17zM12 11c-1.1 0-2 .9-2 2 0 1.1.9 2 2 2 1.1 0 2-.9 2-2C14 11.9 13.1 11 12 11zM18 9A1 1 0 1 0 18 11 1 1 0 1 0 18 9z"/><path d="M20,7h-3c-0.5,0-1-0.4-1-1V5c0-0.6-0.4-1-1-1H9C8.4,4,8,4.4,8,5v1 c0,0.6-0.4,1-1,1H4C3.5,7,3,7.4,3,8v11c0,0.5,0.5,1,1,1h16c0.5,0,1-0.5,1-1V8C21,7.4,20.5,7,20,7z M12,16c-1.7,0-3-1.3-3-3 s1.3-3,3-3s3,1.3,3,3S13.7,16,12,16z" opacity=".3"/></svg>