<svg fill="#000000" xmlns="http://www.w3.org/2000/svg"  viewBox="0 0 50 50" width="50px" height="50px"><path fill="none" stroke="#000000" stroke-miterlimit="10" stroke-width="2" d="M42.4,26.9c0-2-1.5-3.6-3.4-4V19H11v4c-1.7,0.5-3,2-3,3.9c0,1.8,1.3,3.4,3,3.9V35c0,3.3,6.2,12,14,12s14-9,14-12v-4.1C40.9,30.5,42.4,28.9,42.4,26.9z"/><path d="M28 34h-6c-2.2 0-4 1.8-4 4v4.4c0 3.1 2.5 5.6 5.6 5.6h2.8c3.1 0 5.6-2.5 5.6-5.6V38C32 35.8 30.2 34 28 34zM30 41l-3 3v-2c0-1.1-.9-2-2-2s-2 .9-2 2v2l-3-3v-1c0-1.1.9-2 2-2h6c1.1 0 2 .9 2 2V41zM12 24l1.5 5.3c.3 1 1.2 1.7 2.3 1.7h4.5c1 0 2-.6 2.4-1.5 0 0 1-1.9 1.7-3.2.3-.6 1.1-.5 1.4 0l1.6 3.2c.5.9 1.4 1.5 2.4 1.5h4.5c1.1 0 2-.7 2.3-1.7L38 24H12zM47.9 17.2C47.7 16.5 47 16 46.2 16h-6.1L39.2 5.1C39 3.2 37.6 3 37 3H13.5c-.6 0-2 .2-2.3 2.2L10.3 16H3.7c-.7 0-1.4.4-1.6 1.1-.2.7 0 1.5.6 1.9l.1.1c2.7 1.4 10 3.9 22.5 3.9 12.4 0 19.2-2.4 22-3.9C47.9 18.7 48.1 17.9 47.9 17.2zM25.5 16H12l.4-4h25.2l.4 4H25.5z"/></svg>